<?xml version="1.0" standalone="no"?><!DOCTYPE svg PUBLIC "-//W3C//DTD SVG 1.1//EN" "http://www.w3.org/Graphics/SVG/1.1/DTD/svg11.dtd"><svg t="1577368488006" class="icon" viewBox="0 0 1024 1024" version="1.1" xmlns="http://www.w3.org/2000/svg" p-id="1220" xmlns:xlink="http://www.w3.org/1999/xlink" width="200" height="200"><defs><style type="text/css"></style></defs><path d="M512 921.6c-226.2272 0-409.6-183.3728-409.6-409.6S285.7728 102.4 512 102.4s409.6 183.3728 409.6 409.6-183.3728 409.6-409.6 409.6z m-176.5376-362.0864v28.672h153.1904c-21.0176 41.7792-75.3664 71.936-163.0208 90.5216l12.288 27.4432c92.288-21.2992 151.0144-55.9872 176.128-104.0384 23.7568 48.896 80.8192 83.1488 171.2128 102.8096l11.8784-27.4432c-82.176-15.5648-136.8064-45.312-163.84-89.2928h155.2384v-28.672H526.336c1.3568-11.7504 2.048-23.2192 2.048-34.4064h-28.672c-0.256 13.1072-1.1008 24.576-2.4576 34.4064h-161.792z m109.3632-226.5088v100.352c-32.2304 17.2032-70.3232 32.3584-114.2784 45.4656l11.8784 27.0336c37.9648-12.288 72.0896-26.496 102.4-42.5984v58.5728h30.3104v-188.8256h-30.3104z m-88.8832 17.2032l-15.9744 23.3472c23.2192 10.9312 46.0032 26.368 68.4032 46.2848l15.9744-24.576a315.9552 315.9552 0 0 0-68.4032-45.056z m240.0256-15.1552l-29.9008-3.6864c-13.9264 31.4112-40.1408 58.1632-78.6432 80.2816l18.0224 23.7568c22.1184-13.3888 40.704-28.2624 55.7056-44.6464h90.112c-10.368 22.1184-27.3152 41.7792-50.7904 58.9824a508.6976 508.6976 0 0 0-38.5024-35.6352l-20.48 15.1552c10.6496 8.192 23.2192 19.5328 37.6832 33.9968-23.2192 12.288-50.5088 22.528-81.92 30.72l14.336 25.8048c92.288-25.3952 148.6848-69.0944 169.1648-131.072v-24.9856H581.632a198.912 198.912 0 0 0 14.336-28.672z" p-id="1221"></path></svg>