<?xml version="1.0" standalone="no"?><!DOCTYPE svg PUBLIC "-//W3C//DTD SVG 1.1//EN" "http://www.w3.org/Graphics/SVG/1.1/DTD/svg11.dtd"><svg t="1577423629761" class="icon" viewBox="0 0 1024 1024" version="1.1" xmlns="http://www.w3.org/2000/svg" p-id="6379" xmlns:xlink="http://www.w3.org/1999/xlink" width="200" height="200"><defs><style type="text/css"></style></defs><path d="M522.43462 20.962058c269.862924 5.524211 486.885053 227.208234 481.917754 500.736-4.907415 270.126409-227.313029 487.438971-501.259976 482.115369C233.388164 998.570667 16.857076 776.647111 21.59083 503.631345 26.276678 233.439064 248.553544 16.375018 522.43462 20.962058z m421.795181 492.043977c0.341333-238.538105-192.209591-431.496234-430.912374-431.834573-238.068023-0.335345-430.894409 191.910175-431.601029 430.304561-0.709614 238.681825 192.559906 432.364538 431.343532 432.265731 238.268632-0.110784 430.83752-192.479064 431.169871-430.735719z" fill="" p-id="6380"></path><path d="M872.489918 588.686222c-0.03593 137.781895-112.247766 249.742222-249.984748 249.418854-137.518409-0.326363-249.044585-112.104047-248.999673-249.559579 0.044912-137.79986 112.128-249.631439 249.984749-249.427836 137.380678 0.203602 249.032608 112.113029 248.999672 249.568561z m-60.278269-0.053895c0.008982-104.786339-84.396164-189.19448-189.197474-189.203462-104.798316-0.011977-189.218433 84.387181-189.224421 189.176515-0.008982 104.780351 84.411135 189.20945 189.19448 189.218433 104.786339 0.005988 189.215439-84.40814 189.227415-189.191486zM192.017965 490.990035c1.44917 85.006971 29.384608 159.905684 86.08786 223.70807 11.425684 12.856889 11.611322 28.683977 0.622783 39.462924-10.754994 10.551392-27.570152 10.737029-39.714433-0.823392-24.064-22.91724-43.430175-49.613099-59.895017-78.374924-32.139228-56.134363-48.642994-116.756959-50.79579-181.286924-0.308398-9.233965 0.485053-18.617637 1.841404-27.77076 2.500117-16.872047 17.419977-28.40552 33.573427-26.788678 16.491789 1.652772 28.420491 15.351018 28.288748 32.426667-0.050901 6.479345-0.008982 12.964678-0.008982 19.447017z" fill="" p-id="6381"></path><path d="M659.048795 583.721918c5.832608 2.835462 12.276023 5.458339 18.213427 8.943532 22.462129 13.192234 34.741146 32.872795 34.220164 59.044679-0.559906 28.171977-13.955743 49.157988-39.933006 60.53876-30.252912 13.258105-61.817263 15.294129-93.154058 4.745731-28.857637-9.713029-47.03214-29.309754-48.325614-61.314246-1.227602-30.390643 13.773099-51.253895 39.349146-65.667742 3.182784-1.793497 6.491322-3.362433 9.707041-5.099041 0.452117-0.242526 0.709614-0.844351 1.284491-1.562948-2.269567-1.209637-4.464281-2.398316-6.673965-3.557052-22.150737-11.593357-35.774129-28.890573-36.004678-54.784-0.236538-26.324585 12.716164-44.762573 35.076491-57.385918 31.405661-17.737357 81.342129-15.177357 108.466152 5.59607 30.187041 23.123836 31.959579 67.733708 3.209731 92.770807-7.757848 6.754807-16.934924 11.877801-25.435322 17.731368z m-37.849076 99.004632c24.555041-0.032936 39.184468-13.776094 38.193404-35.881918-0.781474-17.437942-22.893287-40.133614-39.735392-40.75041-0.82938-0.029942-1.682713 0.125754-2.503111 0.308398-16.641497 3.703766-33.432702 22.423205-35.274105 39.31621-2.296515 20.959064 14.791111 37.037661 39.319204 37.00772z m31.58531-156.085146c0.452117-13.039532-4.329544-22.219602-15.111485-27.12103-12.940725-5.880515-25.812585-5.060117-37.30414 3.916351-9.632187 7.527298-12.461661 17.931977-9.730995 29.45048 3.661848 15.470784 15.458807 23.432234 29.088187 29.27083 0.934175 0.401216 2.215673 0.269474 3.275603 0.062877 15.174363-2.964211 29.728936-20.968047 29.78283-35.579508z" fill="" p-id="6382"></path></svg>