<?xml version="1.0" standalone="no"?><!DOCTYPE svg PUBLIC "-//W3C//DTD SVG 1.1//EN" "http://www.w3.org/Graphics/SVG/1.1/DTD/svg11.dtd"><svg t="1577423684427" class="icon" viewBox="0 0 1024 1024" version="1.1" xmlns="http://www.w3.org/2000/svg" p-id="7135" xmlns:xlink="http://www.w3.org/1999/xlink" width="200" height="200"><defs><style type="text/css"></style></defs><path d="M510.331259 44.544c257.327407 0 465.938963 208.592593 465.938963 465.901037 0 257.289481-208.611556 465.882074-465.938963 465.882074-257.327407 0-465.957926-208.592593-465.957926-465.882074 0-257.327407 208.611556-465.901037 465.957926-465.901037z m0 75.851852C294.874074 120.395852 120.225185 295.025778 120.225185 510.445037s174.648889 390.030222 390.106074 390.030222c215.438222 0 390.087111-174.629926 390.087111-390.030222 0-215.419259-174.648889-390.049185-390.087111-390.049185z" fill="#F15A4A" p-id="7136"></path><path d="M545.848889 743.860148c-18.394074 1.384296-29.714963-4.987259-33.962667-19.114667-1.441185-15.587556 6.371556-24.784593 23.343408-27.591111 99.081481-12.743111 164.901926-59.448889 197.480296-140.136296 7.073185-14.127407 17.692444-18.375111 31.857778-12.724148 14.127407 8.476444 18.394074 20.517926 12.743111 36.086518-41.073778 90.586074-118.215111 145.066667-231.461926 163.460741zM448.18963 599.495111v140.117333c-1.441185 9.879704-9.234963 15.54963-23.362371 16.990815-14.165333-1.441185-21.238519-7.793778-21.238518-19.114666v-144.365037c-26.908444 38.21037-60.188444 72.173037-99.802074 101.906963-14.165333 5.632-26.206815 4.247704-36.086519-4.247704-8.495407-11.320889-6.371556-21.940148 6.371556-31.857778 56.585481-39.594667 96.938667-81.351111 121.021629-125.25037H303.786667c-12.743111 0-19.114667-7.073185-19.114667-21.238519 0-14.127407 6.371556-21.921185 19.114667-23.343407h99.802074v-29.733926c0-11.301926 7.073185-17.673481 21.238518-19.095704 14.127407 1.422222 21.921185 7.092148 23.343408 16.971852v31.857778h74.334814c14.127407 1.422222 21.921185 9.216 23.343408 23.343407 0 14.165333-7.092148 21.238519-21.238519 21.238519h-76.42074v12.743111c36.788148 26.889481 68.645926 55.182222 95.535407 84.916148 11.320889 14.165333 12.022519 26.206815 2.123852 36.086518-14.165333 9.91763-26.206815 7.793778-36.086519-6.371555-14.165333-16.971852-34.702222-37.470815-61.57274-61.553778z" fill="#F15A4A" p-id="7137"></path><path d="M363.254519 463.606519c-12.743111 4.247704-21.978074-0.682667-27.610075-14.848-4.247704-7.073185-10.619259-19.114667-19.114666-36.105482-8.495407-16.971852-14.165333-29.714963-16.990815-38.21037-5.669926-12.743111-3.546074-21.921185 6.371556-27.591111 11.320889-5.650963 21.238519-2.844444 29.733925 8.476444a1352.154074 1352.154074 0 0 1 38.210371 78.563556c4.247704 14.165333 0.70163 24.082963-10.619259 29.714963zM435.446519 431.767704c-11.358815 5.688889-19.114667 2.123852-23.362371-10.61926a1100.136296 1100.136296 0 0 1-16.990815-36.086518c-5.669926-15.54963-9.216-26.168889-10.619259-31.857778-4.247704-9.860741-1.422222-17.673481 8.495407-23.343407 11.320889-4.247704 20.498963-2.123852 27.610075 6.371555 12.743111 29.714963 21.921185 52.375704 27.610074 67.925334 2.806519 12.743111-1.441185 21.959111-12.743111 27.610074zM305.910519 278.907259c35.365926 0 74.334815-1.403259 116.792888-4.247703 42.477037-4.247704 75.700148-9.197037 99.802074-14.866963 14.127407-1.384296 23.343407 4.247704 27.591112 16.990814 2.825481 14.165333-2.844444 22.660741-16.971852 25.46726-55.220148 11.358815-130.275556 17.73037-225.090371 19.114666-15.587556-1.403259-24.082963-7.774815-25.467259-19.114666 0-14.127407 7.755852-21.921185 23.343408-23.343408zM560.734815 351.080296c-18.432 43.899259-36.845037 77.861926-55.220148 101.925926-11.358815 11.339852-22.660741 13.463704-33.98163 6.352593-8.495407-8.476444-8.495407-19.095704 0-31.838815 18.394074-26.870519 35.365926-58.026667 50.972444-93.411556 4.247704-11.320889 13.425778-14.866963 27.591112-10.619259 11.320889 5.688889 14.866963 14.866963 10.619259 27.591111zM586.202074 368.071111c48.109037-18.375111 85.636741-43.84237 112.545185-76.420741 9.860741-11.320889 20.48-13.444741 31.857778-6.371555 9.860741 9.91763 10.600296 21.238519 2.104889 33.962666-32.57837 42.477037-75.738074 73.614222-129.517037 93.411556-15.606519 5.688889-26.225778 1.441185-31.857778-12.743111-4.247704-14.127407 0.70163-24.727704 14.866963-31.838815zM747.576889 461.482667c-43.899259 49.569185-97.678222 85.655704-161.374815 108.278518-15.587556 5.688889-26.206815 2.123852-31.857778-10.619259-2.844444-15.54963 2.825481-26.870519 16.990815-33.943704 62.27437-26.889481 109.681778-58.728296 142.260148-95.573333 11.320889-12.705185 22.622815-14.108444 33.98163-4.228741 9.879704 11.339852 9.879704 23.36237 0 36.086519z" fill="#F15A4A" p-id="7138"></path></svg>