<?xml version="1.0" standalone="no"?><!DOCTYPE svg PUBLIC "-//W3C//DTD SVG 1.1//EN" "http://www.w3.org/Graphics/SVG/1.1/DTD/svg11.dtd"><svg t="1577423426488" class="icon" viewBox="0 0 1024 1024" version="1.1" xmlns="http://www.w3.org/2000/svg" p-id="6266" xmlns:xlink="http://www.w3.org/1999/xlink" width="200" height="200"><defs><style type="text/css"></style></defs><path d="M854.4 320c19.2-25.6 14.4-41.6 6.4-64l-52.8-128c-17.6-41.6-64-62.4-107.2-44.8L52.8 345.6c-41.6 17.6-62.4 64-44.8 107.2l52.8 129.6c8 22.4 19.2 38.4 49.6 41.6 20.8 1.6 72 8 89.6 52.8 20.8 51.2-1.6 80-25.6 99.2l-1.6 1.6c-19.2 25.6-11.2 52.8-6.4 64l52.8 129.6c17.6 41.6 64 62.4 107.2 44.8L972.8 752c41.6-17.6 62.4-64 44.8-107.2l-52.8-129.6c-11.2-28.8-24-35.2-49.6-41.6-54.4-4.8-75.2-17.6-89.6-52.8-12.8-33.6-6.4-57.6 28.8-100.8z" fill="#6EC7CB" p-id="6267"></path><path d="M344 619.2l40-40c-22.4-9.6-44.8-27.2-72-54.4-17.6 12.8-46.4 36.8-46.4 36.8s73.6 54.4 78.4 57.6z m238.4-30.4l59.2 27.2c57.6-51.2 108.8-180.8 108.8-180.8l-65.6-25.6c-1.6-1.6-16 84.8-102.4 179.2zM464 536l44.8 3.2c19.2-49.6 24-115.2 24-115.2l-65.6 3.2c-1.6 0 3.2 72-3.2 108.8z m131.2-38.4c44.8-52.8 80-182.4 80-182.4l-62.4-22.4s-22.4 121.6-70.4 180.8l52.8 24z m33.6 152l-128-9.6 102.4-44.8-25.6-59.2-107.2 46.4-12.8-27.2-70.4 30.4 12.8 27.2-116.8 51.2 25.6 59.2 88-38.4c-11.2 46.4-17.6 67.2-52.8 118.4l59.2 36.8c30.4-51.2 38.4-80 46.4-112l46.4 107.2 70.4-30.4-46.4-107.2 96 11.2 12.8-59.2z m115.2-129.6s-11.2 108.8-137.6 211.2l41.6 38.4c128-97.6 155.2-200 161.6-217.6l-65.6-32zM400 560s44.8-19.2 51.2-22.4c-17.6-24-22.4-35.2-41.6-67.2L352 507.2c16 16 32 28.8 48 52.8z m107.2-180.8l-44.8-54.4s-25.6 56-244.8 156.8l25.6 49.6c264-107.2 264-152 264-152z" fill="#FFFFFF" p-id="6268"></path></svg>