<?xml version="1.0" standalone="no"?><!DOCTYPE svg PUBLIC "-//W3C//DTD SVG 1.1//EN" "http://www.w3.org/Graphics/SVG/1.1/DTD/svg11.dtd"><svg t="1577368640360" class="icon" viewBox="0 0 1024 1024" version="1.1" xmlns="http://www.w3.org/2000/svg" p-id="2768" xmlns:xlink="http://www.w3.org/1999/xlink" width="200" height="200"><defs><style type="text/css"></style></defs><path d="M222.243687 609.492428 106.340957 609.492428c-10.666944 0-19.316951 10.923794-19.316951 24.373107l0 292.476261c0 13.470803 8.650007 24.373107 19.316951 24.373107l115.90273 0c10.666944 0 19.316951-10.902304 19.316951-24.373107L241.560638 633.865535C241.560638 620.416222 232.909607 609.492428 222.243687 609.492428zM202.925712 901.968689l-77.268828 0 0-243.73107 77.268828 0L202.925712 901.968689zM917.659043 73.285097 801.756313 73.285097c-10.666944 0-19.316951 10.923794-19.316951 24.373107l0 828.683593c0 13.470803 8.650007 24.373107 19.316951 24.373107l115.90273 0c10.666944 0 19.316951-10.902304 19.316951-24.373107L936.975994 97.658204C936.975994 84.20889 928.325987 73.285097 917.659043 73.285097zM898.342092 901.968689l-77.268828 0L821.073264 122.031311l77.268828 0L898.342092 901.968689zM685.853583 463.253786 569.950853 463.253786c-10.666944 0-19.316951 10.923794-19.316951 24.373107l0 438.714903c0 13.470803 8.650007 24.373107 19.316951 24.373107l115.90273 0c10.666944 0 19.316951-10.902304 19.316951-24.373107L705.170534 487.626893C705.170534 474.17758 696.520527 463.253786 685.853583 463.253786zM666.536632 901.968689l-77.268828 0L589.267804 512l77.268828 0L666.536632 901.968689zM454.048123 170.777525 338.145393 170.777525c-10.666944 0-19.316951 10.923794-19.316951 24.373107l0 731.192188c0 13.470803 8.650007 24.373107 19.316951 24.373107l115.90273 0c10.666944 0 19.316951-10.902304 19.316951-24.373107L473.365074 195.149609C473.366098 181.701319 464.715067 170.777525 454.048123 170.777525zM434.731172 901.968689l-77.268828 0L357.462345 219.522716l77.268828 0L434.731172 901.968689z" p-id="2769"></path></svg>