<?xml version="1.0" standalone="no"?><!DOCTYPE svg PUBLIC "-//W3C//DTD SVG 1.1//EN" "http://www.w3.org/Graphics/SVG/1.1/DTD/svg11.dtd"><svg t="1577423787097" class="icon" viewBox="0 0 1024 1024" version="1.1" xmlns="http://www.w3.org/2000/svg" p-id="7999" xmlns:xlink="http://www.w3.org/1999/xlink" width="200" height="200"><defs><style type="text/css"></style></defs><path d="M398.5 371.5c-122.4 0-329.6-24.9-329.6-118.3s207.2-118.3 329.6-118.3 329.6 24.9 329.6 118.3-207.2 118.3-329.6 118.3zM133.6 253.2c13.8 20 111.5 54.3 264.8 54.3s251.1-34.4 264.9-54.3c-13.8-20-111.5-54.3-264.9-54.3s-251 34.3-264.8 54.3z m530.8 1.9h0.3-0.3zM398.5 544.2c-122.4 0-329.6-24.9-329.6-118.3 0-17.7 14.3-32 32-32s32 14.3 32 32c8.4 17.8 107.4 54.3 265.6 54.3 30.4 0 60.4-1.4 89-4.1 17.7-1.5 33.2 11.3 34.9 28.9 1.7 17.6-11.3 33.2-28.9 34.9-30.6 2.8-62.6 4.3-95 4.3zM398.5 867.9C276 867.9 68.9 843 68.9 749.6c0-17.7 14.3-32 32-32s32 14.3 32 32c8.4 17.8 107.4 54.3 265.6 54.3 62.5 0 121.6-5.6 171.1-16.4 17.4-3.7 34.3 7.2 38 24.5 3.7 17.3-7.2 34.3-24.5 38-53.8 11.7-117.7 17.9-184.6 17.9z" p-id="8000"></path><path d="M696.1 412c-17.7 0-32-14.3-32-32V253.2c0-17.7 14.3-32 32-32s32 14.3 32 32V380c0 17.7-14.3 32-32 32zM100.9 781.6c-17.7 0-32-14.3-32-32V253.2c0-17.7 14.3-32 32-32s32 14.3 32 32v496.4c0 17.7-14.4 32-32 32z" p-id="8001"></path><path d="M398.5 716.8c-122.4 0-329.6-24.9-329.6-118.3 0-17.7 14.3-32 32-32s32 14.3 32 32c8.4 17.8 107.4 54.3 265.6 54.3 30.4 0 60.4-1.4 89-4.1 17.7-1.8 33.2 11.3 34.9 28.9 1.7 17.6-11.3 33.2-28.9 34.8-30.6 3-62.6 4.4-95 4.4z" p-id="8002"></path><path d="M717.8 891.1c-143 0-259.3-116.7-259.3-260.2s116.3-260.2 259.3-260.2 259.3 116.7 259.3 260.2-116.3 260.2-259.3 260.2z m0-456.4c-107.7 0-195.3 88-195.3 196.2s87.6 196.2 195.3 196.2 195.3-88 195.3-196.2-87.6-196.2-195.3-196.2z" p-id="8003"></path><path d="M717.8 753.3c-14.3 0-28.6-5.2-39.8-15.5L606.1 671c-11.2-10.4-17.7-25-17.7-40.1 0-15.1 6.4-29.7 17.7-40.2l72-66.7c22.3-20.7 57.2-20.7 79.5 0l72 66.7c11.3 10.5 17.7 25.1 17.7 40.2 0 15.1-6.5 29.7-17.7 40.1l-72 66.7c-11.2 10.4-25.5 15.6-39.8 15.6z m-60.9-122.4l60.9 56.4 60.9-56.5-60.9-56.4-60.9 56.5z" p-id="8004"></path></svg>