<?xml version="1.0" standalone="no"?><!DOCTYPE svg PUBLIC "-//W3C//DTD SVG 1.1//EN" "http://www.w3.org/Graphics/SVG/1.1/DTD/svg11.dtd"><svg t="1577423763151" class="icon" viewBox="0 0 1024 1024" version="1.1" xmlns="http://www.w3.org/2000/svg" p-id="7887" xmlns:xlink="http://www.w3.org/1999/xlink" width="200" height="200"><defs><style type="text/css"></style></defs><path d="M903.68 130.4v0.48c0 3.36-0.96 6.72-1.92 10.08l-2.88 5.76-120.96 229.44-4.32 8.16c-5.28 6.72-13.44 11.04-22.56 11.04-4.8 0-9.6-1.44-13.44-3.36-1.44-0.48-2.88-1.44-3.84-2.4-0.48 0-0.48-0.48-0.48-0.48-0.48-0.48-1.44-1.44-2.4-1.92-33.6-29.76-73.44-52.32-116.16-66.72-2.4-0.96-5.28-1.44-8.16-2.4-0.48 0-0.48-0.48-0.96-0.48-1.44-0.96-3.36-1.92-4.8-2.88l-4.32-4.32v-0.48l-0.48-0.48-3.84-7.2v-0.48l-48.96-90.24v-0.48l-4.32-7.68c-0.96-2.88-1.44-6.24-1.44-9.6 0-5.28 1.44-10.08 3.84-13.92 0.48-0.48 0.48-1.44 1.44-1.92l32.64-57.6v-0.48l4.8-8.16 3.84-3.84 0.48-0.48c0.96-0.96 2.4-1.92 3.84-2.4 2.4-1.44 4.8-2.4 7.68-2.88 0.96-0.48 1.92-0.48 2.88-0.48h281.28c0.48 0 1.44 0 1.92 0.48 0.48 0 0.48 0 0.96 0.48 3.36 0.96 6.72 1.92 9.12 3.84 0.48 0 0.48 0.48 0.48 0.48 4.8 3.36 8.16 7.68 10.08 12.96 0 3.36 0.96 7.2 0.96 10.56zM525.92 276.32v0.48c-0.48 15.84-12.96 28.32-28.8 28.32h-0.96c-73.92 3.36-144.48 31.68-199.68 80.16-1.44 1.44-2.88 2.4-4.8 3.84-4.8 2.88-10.08 4.8-15.84 4.8-4.8 0-9.6-1.44-13.44-3.36-1.44-0.96-3.36-1.92-4.8-2.88-1.92-1.44-3.84-3.36-4.8-5.28l-3.36-6.24v-0.48l-122.88-228v-0.48l-4.32-7.68c-0.96-2.88-1.44-6.24-1.44-9.6 0-6.72 2.4-12.96 6.24-18.24l3.84-3.84 0.48-0.48c3.36-2.4 7.2-4.32 11.04-5.28h285.12c3.84 0.96 7.2 2.4 10.08 4.32 0.48 0 0.48 0.48 0.48 0.48 3.36 2.4 5.76 4.8 7.68 8.16l2.4 4.8 71.52 137.76 0.48 0.48v0.48l0.96 1.92 2.4 4.8v0.48l0.48 0.96 0.48 0.48c0.96 2.88 1.44 5.76 1.44 9.12zM512 345.92c-158.88 0-288 129.12-288 288s129.12 288 288 288 288-129.12 288-288c0-159.36-129.12-288-288-288zM619.04 788L512 731.36l-107.04 56.16L425.6 668l-86.88-84 120-17.28L512 458.24l53.76 108.48 120 17.28-86.88 84.48L619.04 788z" p-id="7888"></path></svg>