<?xml version="1.0" standalone="no"?><!DOCTYPE svg PUBLIC "-//W3C//DTD SVG 1.1//EN" "http://www.w3.org/Graphics/SVG/1.1/DTD/svg11.dtd"><svg t="1577368766617" class="icon" viewBox="0 0 1046 1024" version="1.1" xmlns="http://www.w3.org/2000/svg" p-id="3487" xmlns:xlink="http://www.w3.org/1999/xlink" width="204.296875" height="200"><defs><style type="text/css"></style></defs><path d="M813.85442674 988.24697596H241.59759426c-63.11299937 0-114.47559419-51.36259482-114.47559296-114.47559419V164.38611268c0-63.11299937 51.36259482-114.47559419 114.47559296-114.47559418h572.13569525c63.11299937 0 114.47559419 51.36259482 114.47559418 114.47559418v465.41294432c0 12.59837243-10.29674689 22.89511933-22.89511932 22.89511932s-22.89511933-10.29674689-22.89511931-22.89511932V164.38611268c0-37.91625452-30.76910102-68.68535675-68.68535555-68.68535675H241.59759426c-37.91625452 0-68.68535675 30.76910102-68.68535553 68.68535675v709.50640753c0 37.91625452 30.76910102 68.68535675 68.68535553 68.68535554h572.13569525c37.91625452 0 68.68535675-30.76910102 68.68535555-68.68535554V738.46001813c0-12.59837243 10.29674689-22.89511933 22.89511931-22.89511931s22.89511933 10.29674689 22.89511932 22.89511931v135.43250208c0 62.99186093-51.36259482 114.35445574-114.35445695 114.35445575z" fill="#E53439" p-id="3488"></path><path d="M298.89596058 95.70075593h148.75770394v22.89511931H298.89596058zM607.7983577 95.70075593h148.75770394v22.89511931H607.7983577zM298.89596058 919.5616192h148.75770394v45.79023744H298.89596058zM607.7983577 919.5616192h148.75770394v45.79023744H607.7983577zM859.52352694 287.34138078h45.79023743v148.75770272h-45.79023743zM150.13825785 287.34138078h45.79023742v148.75770272H150.13825785z" fill="#E53439" p-id="3489"></path><path d="M348.92603497 323.07714819m-41.42926204 0a41.42926203 41.42926203 0 1 0 82.85852529 0 41.42926203 41.42926203 0 1 0-82.85852529 0Z" fill="#E53439" p-id="3490"></path><path d="M510.28211134 323.07714819c0 22.89511933-18.53414393 41.42926203-41.42926324 41.42926203s-41.42926203-18.53414393-41.42926204-41.42926203 18.53414393-41.42926203 41.42926204-41.42926324c22.77398087 0 41.42926203 18.53414393 41.42926324 41.42926324z" fill="#E53439" p-id="3491"></path><path d="M715.1267984 323.07714819m-41.42926204 0a41.42926203 41.42926203 0 1 0 82.85852528 0 41.42926203 41.42926203 0 1 0-82.85852528 0Z" fill="#E53439" p-id="3492"></path><path d="M589.26421377 463.35517701m-41.42926203 0a41.42926203 41.42926203 0 1 0 82.85852527 0 41.42926203 41.42926203 0 1 0-82.85852527 0Z" fill="#E53439" p-id="3493"></path><path d="M348.92603497 600.60475207m-41.42926204 0a41.42926203 41.42926203 0 1 0 82.85852529 0 41.42926203 41.42926203 0 1 0-82.85852529 0Z" fill="#E53439" p-id="3494"></path><path d="M589.26421377 740.76164367m-41.42926203 0a41.42926203 41.42926203 0 1 0 82.85852527 0 41.42926203 41.42926203 0 1 0-82.85852527 0Z" fill="#E53439" p-id="3495"></path><path d="M510.28211134 463.35517701c0 22.89511933-18.53414393 41.42926203-41.42926324 41.42926325s-41.42926203-18.53414393-41.42926204-41.42926325c0-22.89511933 18.53414393-41.42926203 41.42926204-41.42926203 22.77398087-0.12113844 41.42926203 18.53414393 41.42926324 41.42926203z" fill="#E53439" p-id="3496"></path><path d="M715.1267984 463.35517701m-41.42926204 0a41.42926203 41.42926203 0 1 0 82.85852528 0 41.42926203 41.42926203 0 1 0-82.85852528 0Z" fill="#E53439" p-id="3497"></path></svg>