<?xml version="1.0" standalone="no"?><!DOCTYPE svg PUBLIC "-//W3C//DTD SVG 1.1//EN" "http://www.w3.org/Graphics/SVG/1.1/DTD/svg11.dtd"><svg t="1577423850912" class="icon" viewBox="0 0 1024 1024" version="1.1" xmlns="http://www.w3.org/2000/svg" p-id="8759" xmlns:xlink="http://www.w3.org/1999/xlink" width="200" height="200"><defs><style type="text/css"></style></defs><path d="M511.735 954.453C268.163 954.453 70 756.3 70 512.735c0-117.925 45.9-228.815 129.25-312.246 4.478-4.49 10.44-6.961 16.789-6.961 6.338 0 12.297 2.463 16.775 6.946 9.255 9.246 9.264 24.299 0.021 33.554-74.399 74.47-115.37 173.449-115.37 278.707 0 217.393 176.868 394.256 394.27 394.256 217.392 0 394.26-176.863 394.26-394.256 0-209.576-162.229-381.191-370.531-393.563l0 132.31c0 13.088-10.644 23.736-23.729 23.736-13.09 0-23.738-10.648-23.738-23.736L487.997 71l23.738 0c117.802 0 228.679 46.001 312.207 129.524 83.522 83.527 129.524 194.404 129.52 312.211C953.461 756.3 755.302 954.453 511.735 954.453L511.735 954.453zM511.73 571.31c-15.641 0-30.347-6.093-41.405-17.153-20.584-20.588-175.587-246.609-182.176-256.224l8.783-8.781c9.611 6.589 235.623 161.586 256.208 182.178 11.063 11.062 17.16 25.769 17.16 41.419 0 15.649-6.093 30.354-17.16 41.412-11.059 11.059-25.765 17.149-41.406 17.149L511.73 571.31 511.73 571.31zM511.73 571.31" p-id="8760"></path></svg>