<?xml version="1.0" standalone="no"?><!DOCTYPE svg PUBLIC "-//W3C//DTD SVG 1.1//EN" "http://www.w3.org/Graphics/SVG/1.1/DTD/svg11.dtd"><svg t="1577423906948" class="icon" viewBox="0 0 1024 1024" version="1.1" xmlns="http://www.w3.org/2000/svg" p-id="10104" xmlns:xlink="http://www.w3.org/1999/xlink" width="200" height="200"><defs><style type="text/css"></style></defs><path d="M781.2192 188.8c-134.4 0-160 99.2-275.2 89.6-153.6 3.2-128-92.8-268.8-92.8-192-3.2-371.2 678.4-96 678.4 112 0 96-163.2 355.2-163.2 278.4 0 275.2 163.2 390.4 163.2 259.2 0 112-675.2-105.6-675.2z m121.6 624c-140.8 0-80-153.6-374.4-156.8-348.8 0-275.2 156.8-406.4 156.8-169.6 3.2-54.4-576 121.6-576 115.2 0 112 89.6 268.8 86.4 92.8 6.4 160-86.4 268.8-86.4 179.2-3.2 262.4 576 121.6 576z m0 0" fill="#F14F48" p-id="10105"></path><path d="M608.4192 425.6c0 19.2 9.6 35.2 25.6 44.8 16 9.6 35.2 9.6 51.2 0s25.6-25.6 25.6-44.8c0-28.8-22.4-51.2-51.2-51.2-28.8 0-51.2 22.4-51.2 51.2z m0 0M771.6192 425.6c0 28.8 22.4 51.2 51.2 51.2 28.8 0 51.2-22.4 51.2-51.2 0-28.8-22.4-51.2-51.2-51.2-28.8 0-51.2 22.4-51.2 51.2z m0 0M608.4192 556.8c0 19.2 9.6 35.2 25.6 44.8 16 9.6 35.2 9.6 51.2 0s25.6-25.6 25.6-44.8c0-28.8-22.4-51.2-51.2-51.2-28.8 0-51.2 22.4-51.2 51.2z m0 0M771.6192 556.8c0 28.8 22.4 51.2 51.2 51.2 28.8 0 51.2-22.4 51.2-51.2 0-28.8-22.4-51.2-51.2-51.2-28.8 0-51.2 22.4-51.2 51.2z m0 0M259.6192 508.8c-22.4 0-38.4-6.4-51.2-19.2-12.8-12.8-19.2-28.8-19.2-51.2 0-19.2 6.4-38.4 22.4-51.2 12.8-12.8 32-19.2 54.4-19.2 19.2 0 38.4 6.4 51.2 22.4 12.8 12.8 22.4 32 22.4 54.4 0 19.2-6.4 38.4-19.2 60.8l-64 105.6H208.4192c-3.2-3.2 54.4-102.4 51.2-102.4z m32-70.4c0-9.6-3.2-16-9.6-22.4-6.4-6.4-12.8-9.6-19.2-9.6-9.6 0-12.8 3.2-22.4 9.6-6.4 6.4-9.6 12.8-9.6 22.4 0 9.6 3.2 16 9.6 22.4 6.4 6.4 12.8 9.6 22.4 9.6 6.4 0 12.8-3.2 19.2-9.6 6.4-6.4 9.6-16 9.6-22.4z m0 0" fill="#F14F48" p-id="10106"></path></svg>